# xmcd
#
# Track frame offsets:
#	150
#	12279
#	23740
#	36929
#	48451
#	59428
#	70271
#	83816
#	101251
#	114059
#	127776
#	140201
#	155379
#	174654
#
# Disc length: 2645 seconds
# Revision: 0
# Processed by: cddbd v1.5.2PL0 Copyright (c) Steve Scherf et al.
# Submitted via: dBpowerAMP V12.0
#
DISCID=b00a530e
DTITLE=Ukulele Jim - Ukulele Jim's Authentic Down Home Marital Aid
DYEAR=2009
DGENRE=Pop
TTITLE0=Something About You
TTITLE1=The Town At The End Of The World
TTITLE2=Dance With Me
TTITLE3=Miss Mischief
TTITLE4=Honey Wine
TTITLE5=Hold On To Me
TTITLE6=Imagine
TTITLE7=The Ocean Song
TTITLE8=The Cliche Song
TTITLE9=Slow Down
TTITLE10=Fear
TTITLE11=Anniversary Song
TTITLE12=My Love
TTITLE13=Madeline
EXTD=
EXTT0=
EXTT1=
EXTT2=
EXTT3=
EXTT4=
EXTT5=
EXTT6=
EXTT7=
EXTT8=
EXTT9=
EXTT10=
EXTT11=
EXTT12=
EXTT13=
PLAYORDER=
